<svg width="22" height="22" viewBox="0 0 22 22" fill="none" xmlns="http://www.w3.org/2000/svg">
<path fill-rule="evenodd" clip-rule="evenodd" d="M4.25 13.5C4.25 13.0858 4.58579 12.75 5 12.75H13C13.4142 12.75 13.75 13.0858 13.75 13.5C13.75 13.9142 13.4142 14.25 13 14.25H5C4.58579 14.25 4.25 13.9142 4.25 13.5Z" fill="white" fill-opacity="0.3"/>
<path fill-rule="evenodd" clip-rule="evenodd" d="M4.25 17C4.25 16.5858 4.58579 16.25 5 16.25H10.5C10.9142 16.25 11.25 16.5858 11.25 17C11.25 17.4142 10.9142 17.75 10.5 17.75H5C4.58579 17.75 4.25 17.4142 4.25 17Z" fill="white" fill-opacity="0.3"/>
<path fill-rule="evenodd" clip-rule="evenodd" d="M11.25 1.83416C10.7896 1.75592 10.162 1.74999 9.02979 1.74999C7.11311 1.74999 5.75075 1.75157 4.71785 1.88981C3.70596 2.02524 3.12453 2.27927 2.7019 2.70189C2.27869 3.1251 2.02502 3.70475 1.88976 4.71084C1.75159 5.7385 1.75 7.09317 1.75 8.99999V13C1.75 14.9068 1.75159 16.2615 1.88976 17.2891C2.02502 18.2952 2.27869 18.8749 2.7019 19.2981C3.12511 19.7213 3.70476 19.975 4.71085 20.1102C5.73851 20.2484 7.09318 20.25 9 20.25H13C14.9068 20.25 16.2615 20.2484 17.2892 20.1102C18.2952 19.975 18.8749 19.7213 19.2981 19.2981C19.7213 18.8749 19.975 18.2952 20.1102 17.2891C20.2484 16.2615 20.25 14.9068 20.25 13V12.5629C20.25 11.0269 20.2392 10.2987 20.0762 9.74999H16.9463C15.8135 9.75001 14.8877 9.75003 14.1569 9.65177C13.3929 9.54906 12.7306 9.32678 12.2019 8.79809C11.6732 8.26939 11.4509 7.60706 11.3482 6.8431C11.25 6.11224 11.25 5.18651 11.25 4.05368V1.83416ZM12.75 2.60944V3.99999C12.75 5.1997 12.7516 6.02404 12.8348 6.64323C12.9152 7.24085 13.059 7.53389 13.2626 7.73743C13.4661 7.94097 13.7591 8.0848 14.3568 8.16515C14.976 8.2484 15.8003 8.24999 17 8.24999H19.0195C18.723 7.96244 18.3432 7.61791 17.85 7.17401L13.8912 3.61111C13.4058 3.17427 13.0446 2.85181 12.75 2.60944ZM9.17546 0.249964C10.5601 0.249594 11.4546 0.249355 12.2779 0.565293C13.1012 0.881227 13.7632 1.47728 14.7873 2.39949C14.8226 2.43133 14.8584 2.46355 14.8947 2.49617L18.8534 6.05906C18.8956 6.09699 18.9372 6.13444 18.9783 6.17143C20.162 7.23608 20.9274 7.92452 21.3391 8.84896C21.7508 9.77339 21.7505 10.8029 21.75 12.3949C21.75 12.4502 21.75 12.5062 21.75 12.5629V13.0564C21.75 14.8942 21.75 16.3498 21.5969 17.489C21.4392 18.6614 21.1071 19.6104 20.3588 20.3587C19.6104 21.1071 18.6614 21.4392 17.489 21.5969C16.3498 21.75 14.8942 21.75 13.0564 21.75H8.94359C7.10583 21.75 5.65019 21.75 4.51098 21.5969C3.33856 21.4392 2.38961 21.1071 1.64124 20.3587C0.89288 19.6104 0.560763 18.6614 0.403135 17.489C0.249972 16.3498 0.249984 14.8942 0.25 13.0564V8.94357C0.249984 7.10581 0.249972 5.65018 0.403135 4.51097C0.560763 3.33854 0.89288 2.3896 1.64124 1.64123C2.39019 0.892285 3.34232 0.56053 4.51887 0.403064C5.66283 0.249961 7.1257 0.249974 8.97352 0.249989L9.02979 0.24999C9.07895 0.24999 9.1275 0.249977 9.17546 0.249964Z" fill="white" fill-opacity="0.3"/>
</svg>
