<svg width="158" height="46" viewBox="0 0 158 46" fill="none" xmlns="http://www.w3.org/2000/svg">
<path d="M2.664 35.5V9.22H9.36V35.5H2.664ZM8.64 25.312V19.84H18.396V25.312H8.64ZM8.64 14.692V9.22H18.792V14.692H8.64ZM31.8932 36.22C30.1412 36.22 28.5812 35.956 27.2132 35.428C25.8452 34.9 24.6812 34.168 23.7212 33.232C22.7852 32.296 22.0652 31.216 21.5612 29.992C21.0812 28.768 20.8412 27.46 20.8412 26.068V25.204C20.8412 23.764 21.0932 22.42 21.5972 21.172C22.1252 19.924 22.8692 18.832 23.8292 17.896C24.7892 16.96 25.9532 16.228 27.3212 15.7C28.6892 15.172 30.2132 14.908 31.8932 14.908C33.5972 14.908 35.1212 15.172 36.4652 15.7C37.8332 16.228 38.9972 16.96 39.9572 17.896C40.9172 18.832 41.6492 19.924 42.1532 21.172C42.6812 22.42 42.9452 23.764 42.9452 25.204V26.068C42.9452 27.46 42.6932 28.768 42.1892 29.992C41.7092 31.216 40.9892 32.296 40.0292 33.232C39.0932 34.168 37.9412 34.9 36.5732 35.428C35.2052 35.956 33.6452 36.22 31.8932 36.22ZM31.8932 30.748C32.9012 30.748 33.7292 30.532 34.3772 30.1C35.0492 29.668 35.5532 29.068 35.8892 28.3C36.2252 27.508 36.3932 26.62 36.3932 25.636C36.3932 24.604 36.2132 23.704 35.8532 22.936C35.5172 22.144 35.0132 21.52 34.3412 21.064C33.6692 20.608 32.8532 20.38 31.8932 20.38C30.9332 20.38 30.1172 20.608 29.4452 21.064C28.7732 21.52 28.2572 22.144 27.8972 22.936C27.5612 23.704 27.3932 24.604 27.3932 25.636C27.3932 26.62 27.5612 27.508 27.8972 28.3C28.2332 29.068 28.7372 29.668 29.4092 30.1C30.0812 30.532 30.9092 30.748 31.8932 30.748ZM46.5322 35.5V15.628H51.7163V24.268H51.6443C51.6443 21.484 52.2203 19.3 53.3723 17.716C54.5483 16.132 56.2283 15.34 58.4123 15.34H59.2043V20.956H57.6923C56.2283 20.956 55.0883 21.352 54.2723 22.144C53.4803 22.936 53.0843 24.076 53.0843 25.564V35.5H46.5322ZM71.0438 36.22C69.3638 36.22 67.8758 35.932 66.5798 35.356C65.2838 34.78 64.1918 34 63.3038 33.016C62.4158 32.032 61.7318 30.928 61.2518 29.704C60.7958 28.48 60.5678 27.22 60.5678 25.924V25.204C60.5678 23.86 60.7958 22.576 61.2518 21.352C61.7318 20.104 62.4038 19 63.2678 18.04C64.1558 17.08 65.2358 16.324 66.5078 15.772C67.7798 15.196 69.2198 14.908 70.8278 14.908C72.9638 14.908 74.7758 15.388 76.2638 16.348C77.7518 17.308 78.8918 18.58 79.6837 20.164C80.4758 21.724 80.8718 23.428 80.8718 25.276V27.364H63.3038V23.836H77.0918L74.8238 25.42C74.8238 24.292 74.6678 23.344 74.3558 22.576C74.0678 21.784 73.6238 21.184 73.0238 20.776C72.4478 20.368 71.7158 20.164 70.8278 20.164C69.9638 20.164 69.2078 20.368 68.5598 20.776C67.9358 21.16 67.4558 21.76 67.1198 22.576C66.7838 23.368 66.6158 24.376 66.6158 25.6C66.6158 26.704 66.7718 27.664 67.0838 28.48C67.3958 29.272 67.8758 29.884 68.5238 30.316C69.1718 30.748 70.0118 30.964 71.0438 30.964C71.9558 30.964 72.6998 30.808 73.2758 30.496C73.8758 30.184 74.2958 29.764 74.5358 29.236H80.5117C80.2238 30.58 79.6478 31.78 78.7838 32.836C77.9438 33.892 76.8638 34.72 75.5438 35.32C74.2478 35.92 72.7478 36.22 71.0438 36.22ZM82.0598 35.5L87.9278 24.772L87.7838 25.708L82.2398 15.628H89.2958L92.4998 22.144H93.0758L96.0998 15.628H102.724L97.4318 25.888L97.5758 25.096L103.804 35.5H96.7478L92.8598 28.552H92.2838L88.6838 35.5H82.0598Z" fill="white"/>
<rect x="110" y="0.5" width="48" height="45" rx="6" fill="#F39C12"/>
<path d="M123.286 33.5503C121.471 33.5503 119.911 33.2508 118.608 32.6517C117.304 32.035 116.238 31.2333 115.409 30.2466C114.581 29.2598 113.973 28.185 113.586 27.0221C113.198 25.8592 113.004 24.7227 113.004 23.6126V23.0311C113.004 21.833 113.207 20.6524 113.612 19.4895C114.018 18.3089 114.625 17.2429 115.436 16.2914C116.264 15.3399 117.295 14.5823 118.528 14.0184C119.762 13.437 121.207 13.1462 122.863 13.1462C124.642 13.1462 126.211 13.4722 127.567 14.1241C128.942 14.7761 130.043 15.6835 130.871 16.8465C131.699 17.9918 132.184 19.3221 132.325 20.8374H127.409C127.303 20.256 127.048 19.7362 126.642 19.278C126.237 18.8023 125.708 18.4323 125.057 18.168C124.422 17.886 123.691 17.7451 122.863 17.7451C122.07 17.7451 121.365 17.886 120.748 18.168C120.149 18.4323 119.638 18.8199 119.215 19.3309C118.81 19.8243 118.502 20.4145 118.29 21.1017C118.079 21.7889 117.973 22.5378 117.973 23.3483C117.973 24.1588 118.088 24.9165 118.317 25.6213C118.546 26.3085 118.881 26.9164 119.321 27.445C119.762 27.956 120.317 28.3524 120.986 28.6343C121.656 28.9163 122.422 29.0572 123.286 29.0572C124.378 29.0572 125.321 28.8282 126.114 28.37C126.907 27.9119 127.462 27.304 127.779 26.5463L127.409 29.4537V25.2513H131.902V29.2158C131.091 30.6078 129.937 31.6826 128.44 32.4403C126.959 33.1803 125.242 33.5503 123.286 33.5503ZM122.757 26.2028V22.7668H133.488V26.2028H122.757ZM148.236 33.0217V13.7277H153.152V33.0217H148.236ZM135.972 33.0217V13.7277H140.888V33.0217H135.972ZM140.043 25.4363V21.1546H149.082V25.4363H140.043Z" fill="#004AAD"/>
</svg>
